<svg width="45" height="51" viewBox="0 0 45 51" fill="none" xmlns="http://www.w3.org/2000/svg">
<path d="M41.7857 20.7188H27.3214V6.375C27.3214 4.6149 25.882 3.1875 24.1071 3.1875H20.8929C19.118 3.1875 17.6786 4.6149 17.6786 6.375V20.7188H3.21429C1.4394 20.7188 0 22.1462 0 23.9062V27.0938C0 28.8538 1.4394 30.2812 3.21429 30.2812H17.6786V44.625C17.6786 46.3851 19.118 47.8125 20.8929 47.8125H24.1071C25.882 47.8125 27.3214 46.3851 27.3214 44.625V30.2812H41.7857C43.5606 30.2812 45 28.8538 45 27.0938V23.9062C45 22.1462 43.5606 20.7188 41.7857 20.7188Z" fill="white" fill-opacity="0.8"/>
</svg>
