<svg width="44" height="44" viewBox="0 0 54 54" fill="none" xmlns="http://www.w3.org/2000/svg">
<path d="M34.5938 27C34.5938 31.1977 31.1977 34.5938 27 34.5938C22.8023 34.5938 19.4062 31.1977 19.4062 27C19.4062 22.8023 22.8023 19.4062 27 19.4062C31.1977 19.4062 34.5938 22.8023 34.5938 27ZM45.5625 19.4062C41.3648 19.4062 37.9688 22.8023 37.9688 27C37.9688 31.1977 41.3648 34.5938 45.5625 34.5938C49.7602 34.5938 53.1562 31.1977 53.1562 27C53.1562 22.8023 49.7602 19.4062 45.5625 19.4062ZM8.4375 19.4062C4.23984 19.4062 0.84375 22.8023 0.84375 27C0.84375 31.1977 4.23984 34.5938 8.4375 34.5938C12.6352 34.5938 16.0312 31.1977 16.0312 27C16.0312 22.8023 12.6352 19.4062 8.4375 19.4062Z" fill="#CCCCCC"/>
</svg>
